<svg xmlns="http://www.w3.org/2000/svg" viewBox="0 0 265.97 60.3">
  <defs>
    <style>
      .cls-1 {
        fill: #e5be62;
      }

      .cls-2 {
        fill: #cba13e;
      }

      .cls-3 {
        fill: #9f772b;
      }

      .cls-11, .cls-4 {
        fill: #7b5421;
      }

      .cls-5, .cls-9 {
        fill: #fcf5b7;
      }

      .cls-6 {
        fill: #684018;
      }

      .cls-7, .cls-8 {
        fill: #c08e54;
      }

      .cls-7 {
        stroke: #e5be61;
        stroke-width: 0.25px;
      }

      .cls-10, .cls-11, .cls-7 {
        stroke-miterlimit: 10;
      }

      .cls-9 {
        opacity: 0.98;
      }

      .cls-10 {
        fill: #fff;
        stroke: #231f20;
      }

      .cls-11 {
        stroke: #684119;
      }
    </style>
  </defs>
  <title>boat-4</title>
  <g id="Layer_2" data-name="Layer 2">
    <g id="Layer_1-2" data-name="Layer 1">
      <g>
        <path class="cls-1" d="M251.36,20.15C242,15,223,10.18,219.73,9.35A314.88,314.88,0,0,0,162.92.86C148.4-.12,137.13,0,128.22,0,118.14.12,105.89.25,90,1.75A340.56,340.56,0,0,0,51.82,7.44c-10.15,2.15-18.35,3.92-27.44,7.62C16.49,18.28,11,21.16,7.77,22.68A52.17,52.17,0,0,0,.46,26.45c-.25.17-.22,4.42-.46,9.09a28.66,28.66,0,0,0,2.86,1.73A126.36,126.36,0,0,0,18.6,45.89,176.21,176.21,0,0,0,44.7,53.8c7,1.54,22.66,3.92,45,5.42a413.33,413.33,0,0,0,61.48-.14c12.77-.85,36.77-2.54,61.76-6.95,3.91-.69,23.54-5.71,34.17-9.23,5.17-1.7,8.69-3.36,15.48-7.72,2.54-1.64,3.14-2,3.14-2l.27-5.3C262.32,25.33,256.62,23.06,251.36,20.15Z"/>
        <rect class="cls-2" x="173.07" y="17.27" width="66.32" height="25.76" rx="12.88"/>
        <rect class="cls-3" x="34.06" y="14.64" width="66.6" height="31.03"/>
        <rect class="cls-4" x="23.81" y="19.74" width="10.25" height="22.56"/>
        <rect class="cls-3" x="103.63" y="21.54" width="40.59" height="17.58" rx="3.55"/>
        <path class="cls-5" d="M106.61,39.08a10.53,10.53,0,0,0-3,.88,10.66,10.66,0,0,0-3,2.21V16.84a9.53,9.53,0,0,0,3,3.57,9,9,0,0,0,3,1.15Z"/>
        <rect class="cls-4" x="80.42" y="48.06" width="52.37" height="8.13" rx="4.06"/>
        <rect class="cls-4" x="77.45" y="4.12" width="52.37" height="8.13" rx="4.06"/>
        <path class="cls-6" d="M262.56,35.25c2.54-1.63,3.14-2,3.14-2L266,28c-3.65-2.59-9.35-4.85-14.61-7.77-.53-.29-1.1-.59-1.69-.88,3.17,3.56,5.62,7.73,5.62,12.44a20.48,20.48,0,0,1-2.13,8.83A77.25,77.25,0,0,0,262.56,35.25Z"/>
        <ellipse class="cls-6" cx="69.67" cy="30.63" rx="21.98" ry="13.35"/>
        <ellipse class="cls-2" cx="69.42" cy="30.64" rx="19.2" ry="11.66"/>
        <g>
          <rect class="cls-5" x="62.23" y="31.71" width="14.87" height="2.5" rx="1.25"/>
          <path class="cls-7" d="M75.68,31.71h-9V34.2h9c.79,0,1.42-.38,1.42-.86v-.77C77.1,32.09,76.47,31.71,75.68,31.71Z"/>
        </g>
        <g>
          <rect class="cls-8" x="63.99" y="26.06" width="33.4" height="6.89" rx="3.45"/>
          <path class="cls-5" d="M86.84,29.69a6.38,6.38,0,0,1,1.72-3.63h-6.5a6.68,6.68,0,0,0-1.3,3.63A6.79,6.79,0,0,0,81.69,33h6.46A6,6,0,0,1,86.84,29.69Z"/>
          <path class="cls-5" d="M76.81,29.69a6.34,6.34,0,0,1,1.73-3.63H72a6.7,6.7,0,0,0-1.31,3.63A6.9,6.9,0,0,0,71.66,33h6.46A6,6,0,0,1,76.81,29.69Z"/>
          <path class="cls-9" d="M94.79,26.08A8.07,8.07,0,0,0,94,27.8c-.77,2.14-.49,4.1.56,5.13,1.61-.08,2.87-.9,2.87-1.9V28C97.38,27,96.26,26.24,94.79,26.08Z"/>
          <path class="cls-8" d="M95.4,26.9a7.14,7.14,0,0,0-.64,1.3,3.76,3.76,0,0,0,.43,3.92c1.23-.06,2.19-.69,2.19-1.45V28.33C97.38,27.62,96.53,27,95.4,26.9Z"/>
        </g>
        <g>
          <rect class="cls-5" x="87.58" y="3.01" width="14.87" height="2.5" rx="1.25"/>
          <path class="cls-7" d="M101,3H92v2.5h9c.79,0,1.42-.39,1.42-.86V3.88C102.44,3.4,101.81,3,101,3Z"/>
        </g>
        <g>
          <rect class="cls-8" x="89.42" y="4.74" width="33.4" height="6.89" rx="3.45"/>
          <path class="cls-5" d="M112.27,8.36A6.36,6.36,0,0,1,114,4.74H107.5a6.59,6.59,0,0,0-1.31,3.62,6.82,6.82,0,0,0,.93,3.27h6.46A6.07,6.07,0,0,1,112.27,8.36Z"/>
          <path class="cls-5" d="M103.17,8.36a6.44,6.44,0,0,1,1.7-3.63l-6.49,0a6.55,6.55,0,0,0-1.29,3.62,7,7,0,0,0,1,3.27h6.46A6.14,6.14,0,0,1,103.17,8.36Z"/>
          <path class="cls-9" d="M120.22,4.76a8.57,8.57,0,0,0-.84,1.72c-.77,2.13-.49,4.1.56,5.13,1.61-.09,2.88-.91,2.88-1.91v-3C122.82,5.7,121.69,4.92,120.22,4.76Z"/>
          <path class="cls-8" d="M120.84,5.57a7,7,0,0,0-.65,1.31,3.77,3.77,0,0,0,.43,3.92c1.23-.07,2.2-.69,2.2-1.46V7C122.82,6.29,122,5.7,120.84,5.57Z"/>
        </g>
        <g>
          <rect class="cls-5" x="87.58" y="52.89" width="14.87" height="2.5" rx="1.25"/>
          <path class="cls-7" d="M101,52.89H92v2.49h9c.79,0,1.42-.38,1.42-.86v-.77C102.44,53.27,101.81,52.89,101,52.89Z"/>
        </g>
        <g>
          <rect class="cls-8" x="89.42" y="47.24" width="33.4" height="6.89" rx="3.45"/>
          <path class="cls-5" d="M112.27,50.87A6.38,6.38,0,0,1,114,47.24H107.5a6.62,6.62,0,0,0-1.31,3.63,6.79,6.79,0,0,0,.93,3.26h6.46A6,6,0,0,1,112.27,50.87Z"/>
          <path class="cls-5" d="M102.25,50.87A6.32,6.32,0,0,1,104,47.24h-6.5a6.7,6.7,0,0,0-1.31,3.63,6.8,6.8,0,0,0,.94,3.26h6.45A6,6,0,0,1,102.25,50.87Z"/>
          <path class="cls-9" d="M120.22,47.26a8.57,8.57,0,0,0-.84,1.72c-.77,2.14-.49,4.1.56,5.13,1.61-.08,2.88-.9,2.88-1.9V49.15C122.82,48.21,121.69,47.42,120.22,47.26Z"/>
          <path class="cls-8" d="M120.84,48.08a6.58,6.58,0,0,0-.65,1.3c-.58,1.64-.37,3.14.43,3.92,1.23-.06,2.2-.69,2.2-1.45V49.51C122.82,48.8,122,48.2,120.84,48.08Z"/>
        </g>
        <g>
          <rect class="cls-5" x="195.15" y="31.71" width="14.87" height="2.5" rx="1.25"/>
          <path class="cls-7" d="M208.6,31.71h-9V34.2h9c.78,0,1.42-.38,1.42-.86v-.77C210,32.09,209.38,31.71,208.6,31.71Z"/>
        </g>
        <g>
          <rect class="cls-8" x="197.33" y="26.06" width="33.4" height="6.89" rx="3.45"/>
          <path class="cls-5" d="M220.19,29.69a6.32,6.32,0,0,1,1.72-3.63h-6.5a6.7,6.7,0,0,0-1.31,3.63A6.8,6.8,0,0,0,215,33h6.45A6,6,0,0,1,220.19,29.69Z"/>
          <path class="cls-5" d="M210.16,29.69a6.38,6.38,0,0,1,1.72-3.63h-6.49a6.62,6.62,0,0,0-1.31,3.63A6.79,6.79,0,0,0,205,33h6.46A6,6,0,0,1,210.16,29.69Z"/>
          <path class="cls-9" d="M228.13,26.08a9.14,9.14,0,0,0-.84,1.72c-.76,2.14-.48,4.1.57,5.13,1.61-.08,2.87-.9,2.87-1.9V28C230.73,27,229.61,26.24,228.13,26.08Z"/>
          <path class="cls-8" d="M228.75,26.9a6,6,0,0,0-.64,1.3,3.74,3.74,0,0,0,.43,3.92c1.23-.06,2.19-.69,2.19-1.45V28.33C230.73,27.62,229.88,27,228.75,26.9Z"/>
        </g>
        <path class="cls-10" d="M155.37,44.21c0,3.85,1.83,10.12,3.83,12.45,8.64,1.44,22.21-1.51,29-3.66,6-1.9,14.26-6,18.62-10-6.12,0-7.93.07-14.76.05-2,0-3.51,0-5.68,0H182.8c-.66,0-3.21,0-3.49.05A48,48,0,0,1,155.37,44.21Z"/>
        <g>
          <path class="cls-11" d="M176.8,43.81,180.7,55l.12,0-4-11.15Z"/>
          <path class="cls-11" d="M206.8,43h-3.58l1.87,1.43Q206,43.69,206.8,43Z"/>
          <path class="cls-11" d="M160.13,44.92,162.86,57h.08l-2.73-12.08Z"/>
          <path class="cls-11" d="M198.29,48.68,192.76,43h-.08l5.59,5.66Z"/>
          <path class="cls-11" d="M155.37,44.21c0,3.86,1.83,10.13,3.83,12.45a29.33,29.33,0,0,0,3.66.35l-2.73-12.09C158.58,44.76,157,44.53,155.37,44.21Z"/>
          <path class="cls-11" d="M172,56.51,169.44,45a49.34,49.34,0,0,1-9.23-.11L162.94,57A56,56,0,0,0,172,56.51Z"/>
          <path class="cls-11" d="M169.52,45l2.59,11.47c2.95-.38,5.9-.92,8.59-1.52l-3.9-11.17A45.88,45.88,0,0,1,169.52,45Z"/>
          <path class="cls-11" d="M172,56.51h.08L169.52,45h-.08Z"/>
          <path class="cls-11" d="M190,52.38,183.91,43H182.8c-.66,0-3.21,0-3.49.05-.81.26-1.64.5-2.49.71l4,11.15c2.84-.63,5.39-1.32,7.36-2C188.76,52.81,189.36,52.61,190,52.38Z"/>
          <path class="cls-11" d="M205.09,44.41,203.22,43c-3.44,0-5.67.05-10.46.05l5.53,5.65A49.26,49.26,0,0,0,205.09,44.41Z"/>
          <path class="cls-11" d="M186.36,43h-2.28L190,52.37a66.14,66.14,0,0,0,8.27-3.68L192.68,43H192C190.06,43,188.53,43.05,186.36,43Z"/>
          <path class="cls-11" d="M183.91,43,190,52.38h0L184.08,43Z"/>
        </g>
        <g>
          <path class="cls-11" d="M179.11,16.45,183,5.28l.12,0-4,11.15Z"/>
          <path class="cls-11" d="M209.11,17.29h-3.59l1.88-1.43Q208.33,16.57,209.11,17.29Z"/>
          <path class="cls-11" d="M162.44,15.34l2.73-12.09h.07l-2.73,12.08Z"/>
          <path class="cls-11" d="M200.6,11.59l-5.53,5.64H195l5.59-5.65Z"/>
          <path class="cls-11" d="M157.68,16.05c0-3.85,1.82-10.12,3.83-12.45a29.33,29.33,0,0,1,3.66-.35l-2.73,12.09C160.88,15.5,159.3,15.73,157.68,16.05Z"/>
          <path class="cls-11" d="M174.34,3.75l-2.6,11.47a50.23,50.23,0,0,0-9.23.11l2.73-12.08A56.12,56.12,0,0,1,174.34,3.75Z"/>
          <path class="cls-11" d="M171.82,15.23l2.6-11.47c3,.38,5.9.92,8.59,1.52l-3.9,11.17A45.81,45.81,0,0,0,171.82,15.23Z"/>
          <path class="cls-11" d="M174.34,3.75h.08l-2.6,11.47h-.08Z"/>
          <path class="cls-11" d="M192.28,7.88l-6.06,9.34h-1.11c-.66,0-3.21,0-3.5,0-.81-.26-1.64-.49-2.48-.71l4-11.15c2.84.63,5.38,1.33,7.35,2C191.06,7.45,191.67,7.65,192.28,7.88Z"/>
          <path class="cls-11" d="M207.4,15.85l-1.88,1.43c-3.43,0-5.66-.05-10.45-.05l5.53-5.64A49.24,49.24,0,0,1,207.4,15.85Z"/>
          <path class="cls-11" d="M188.66,17.22h-2.27l5.92-9.33a67.58,67.58,0,0,1,8.27,3.69L195,17.23h-.64C192.37,17.24,190.83,17.21,188.66,17.22Z"/>
          <path class="cls-11" d="M186.22,17.22l6.06-9.34h0l-5.92,9.33Z"/>
        </g>
      </g>
    </g>
  </g>
</svg>
