<svg xmlns="http://www.w3.org/2000/svg" viewBox="0 0 198.05 57.45">
  <defs>
    <style>
      .cls-1 {
        fill: #e5be62;
      }

      .cls-2 {
        fill: #9f772b;
      }

      .cls-3 {
        fill: #684018;
      }

      .cls-4 {
        fill: #7b5421;
      }

      .cls-5 {
        fill: #cba13e;
      }

      .cls-6, .cls-8 {
        fill: #fcf5b7;
      }

      .cls-7 {
        fill: #c08e54;
      }

      .cls-8 {
        opacity: 0.98;
      }
    </style>
  </defs>
  <title>boat-3-1</title>
  <g id="Layer_2" data-name="Layer 2">
    <g id="Layer_1-2" data-name="Layer 1">
      <g>
        <path class="cls-1" d="M197.92,33.56V24.93h0c0-.71-1.1-1.67-5.67-3.86A116.36,116.36,0,0,0,180,16c-8.12-2.71-8.77-2.82-17-5.26A265,265,0,0,0,133.31,4c-4.53-.77-11.16-1.9-20.22-2.77A257.6,257.6,0,0,0,83.81,0c-11,.2-19.14,1.08-27.4,2C51,2.61,45.66,3.2,38.84,4.4c-5.76,1-8.93,1.36-13.32,2.23C17,8.33,14.88,8.92,13.42,9.18c-2.22.38-5.93,1.11-10.09,2.17a16.29,16.29,0,0,0-3,.89h0v27.2a10,10,0,0,0-.25,3.4l.25.1V43H.44c2.28.83,10.2,3.26,11.2,3.47.51.11,10.5,3.34,35.71,6.84a386.85,386.85,0,0,0,46.85,4c11.52.26,22.79.47,37.41-1.19a209.59,209.59,0,0,0,28.52-5.26,107.2,107.2,0,0,0,19.08-6.25c4.73-2.08,5.93-2.47,8.36-3.74,1.38-.72,4.18-2.22,5.77-3.1,3.34-1.85,4.21-2.71,4.58-3.67h0A.94.94,0,0,0,197.92,33.56Z"/>
        <rect class="cls-2" x="29.91" y="16.72" width="32.59" height="25.29"/>
        <g>
          <rect class="cls-3" x="32.46" y="16.2" width="4.25" height="26.26" rx="2.06"/>
          <rect class="cls-3" x="41.53" y="16.2" width="4.25" height="26.26" rx="2.06"/>
          <rect class="cls-3" x="50.45" y="16.2" width="4.25" height="26.26" rx="2.06"/>
          <rect class="cls-3" x="59.38" y="16.2" width="4.25" height="26.26" rx="2.06"/>
        </g>
        <rect class="cls-4" x="117.47" y="11.21" width="15.87" height="38.61"/>
        <path class="cls-5" d="M163.21,14.35c-.19.86-16.28,3.66-29,2.89s-17.38-2.66-16.73-5.65c.52-2.37,6.06-4.28,18.73-3.51S163.37,13.61,163.21,14.35Z"/>
        <path class="cls-5" d="M163.19,45.87c-.2-.86-16.34-3.58-29-2.76s-17.33,2.75-16.63,5.73c.56,2.37,6.14,4.25,18.79,3.43S163.36,46.61,163.19,45.87Z"/>
        <rect class="cls-4" x="62.5" y="7.64" width="49.31" height="45.53" rx="3.77"/>
        <polygon class="cls-6" points="117.47 49.97 108.78 52.46 109.16 8.5 117.47 11.21 117.47 49.97"/>
        <g>
          <rect class="cls-5" y="12.21" width="20.12" height="3.79"/>
          <rect class="cls-4" y="16" width="20.12" height="3.79"/>
          <rect class="cls-4" y="31.18" width="20.12" height="3.79"/>
          <rect class="cls-5" y="27.38" width="20.12" height="3.79"/>
          <rect class="cls-4" y="23.59" width="20.12" height="3.79"/>
          <rect class="cls-5" y="19.8" width="20.12" height="3.79"/>
          <rect class="cls-5" y="34.97" width="20.12" height="3.79"/>
          <rect class="cls-4" y="38.73" width="20.12" height="3.79"/>
        </g>
        <rect class="cls-5" x="69.07" y="14.11" width="32.31" height="33.61"/>
        <path class="cls-3" d="M179.31,45c4.72-2.09,5.92-2.47,8.36-3.75,1.37-.71,4.17-2.22,5.76-3.1,3.34-1.84,4.22-2.71,4.58-3.67h0a.77.77,0,0,0,0-.5V25.32h0c0-.72-1.09-1.67-5.66-3.87a118.55,118.55,0,0,0-12.28-5.06c-8.08-2.69-8.77-2.82-16.86-5.21,5.1,4.74,12,11,12,17.93,0,8.25-6.82,15.63-9,20.53A95.87,95.87,0,0,0,179.31,45Z"/>
        <rect class="cls-1" x="74.16" y="16.72" width="22.12" height="29.05"/>
        <g>
          <rect class="cls-7" x="133.89" y="9.68" width="33.25" height="5.93" rx="2.69"/>
          <path class="cls-6" d="M156.64,12.79a5.15,5.15,0,0,1,1.72-3.11h-6.47a5.21,5.21,0,0,0-1.3,3.11,5.31,5.31,0,0,0,.93,2.82h6.42A4.92,4.92,0,0,1,156.64,12.79Z"/>
          <path class="cls-6" d="M143,12.79a5.13,5.13,0,0,1,1.71-3.11H138.2a5.21,5.21,0,0,0-1.3,3.11,5.31,5.31,0,0,0,.93,2.82h6.43A4.86,4.86,0,0,1,143,12.79Z"/>
          <path class="cls-8" d="M164.56,9.69a7,7,0,0,0-.84,1.48c-.76,1.84-.48,3.53.56,4.42,1.61-.08,2.86-.78,2.86-1.64V11.32C167.14,10.5,166,9.83,164.56,9.69Z"/>
          <path class="cls-7" d="M165.17,10.39a6,6,0,0,0-.64,1.13,2.88,2.88,0,0,0,.43,3.37c1.22-.06,2.18-.6,2.18-1.25v-2C167.14,11,166.29,10.5,165.17,10.39Z"/>
        </g>
        <path class="cls-6" d="M79.61,23.43V35.3c0,.78,1.31,1.4,2.79,1.29C90.28,36,96.28,33,96.28,29.37s-6-6.64-13.88-7.23C80.92,22,79.61,22.65,79.61,23.43Z"/>
        <g>
          <rect class="cls-7" x="134.11" y="44.75" width="33.25" height="5.93" rx="2.69"/>
          <path class="cls-6" d="M156.86,47.87a5.13,5.13,0,0,1,1.71-3.12H152.1a5.27,5.27,0,0,0-1.3,3.12,5.4,5.4,0,0,0,.93,2.81h6.43A4.86,4.86,0,0,1,156.86,47.87Z"/>
          <path class="cls-6" d="M143.17,47.87a5.18,5.18,0,0,1,1.71-3.12h-6.46a5.23,5.23,0,0,0-1.31,3.12,5.4,5.4,0,0,0,.93,2.81h6.43A4.86,4.86,0,0,1,143.17,47.87Z"/>
          <path class="cls-8" d="M164.77,44.76a7.44,7.44,0,0,0-.84,1.48c-.76,1.84-.48,3.53.57,4.42,1.6-.08,2.86-.78,2.86-1.64V46.39C167.36,45.58,166.24,44.9,164.77,44.76Z"/>
          <path class="cls-7" d="M165.39,45.46a5.06,5.06,0,0,0-.64,1.13,2.88,2.88,0,0,0,.43,3.37c1.22-.06,2.18-.6,2.18-1.25v-2C167.36,46.08,166.51,45.57,165.39,45.46Z"/>
        </g>
        <g>
          <rect class="cls-7" x="86.67" y="26.36" width="33.25" height="5.93" rx="2.69"/>
          <path class="cls-6" d="M109.42,29.48a5.2,5.2,0,0,1,1.72-3.12h-6.47a5.26,5.26,0,0,0-1.3,3.12,5.32,5.32,0,0,0,.92,2.81h6.43A4.87,4.87,0,0,1,109.42,29.48Z"/>
          <path class="cls-6" d="M95.73,29.48a5.2,5.2,0,0,1,1.72-3.12H91a5.26,5.26,0,0,0-1.3,3.12,5.25,5.25,0,0,0,.93,2.81H97A4.87,4.87,0,0,1,95.73,29.48Z"/>
          <path class="cls-8" d="M117.34,26.38a7,7,0,0,0-.84,1.48c-.76,1.84-.48,3.53.56,4.42,1.6-.08,2.86-.79,2.86-1.65V28C119.92,27.19,118.81,26.52,117.34,26.38Z"/>
          <path class="cls-7" d="M118,27.08a5.23,5.23,0,0,0-.64,1.13,2.88,2.88,0,0,0,.43,3.37c1.22-.06,2.18-.6,2.18-1.26v-2C119.92,27.7,119.07,27.19,118,27.08Z"/>
        </g>
      </g>
    </g>
  </g>
</svg>
