<svg xmlns="http://www.w3.org/2000/svg" viewBox="0 0 198.6 59.74">
  <defs>
    <style>
      .cls-1 {
        fill: #e5be62;
      }

      .cls-2 {
        fill: #9f772b;
      }

      .cls-3 {
        fill: #7b5421;
      }

      .cls-4 {
        fill: #684018;
      }

      .cls-5, .cls-8 {
        fill: #fcf5b7;
      }

      .cls-6, .cls-7 {
        fill: #c08e54;
      }

      .cls-6 {
        stroke: #e5be61;
        stroke-miterlimit: 10;
        stroke-width: 0.25px;
      }

      .cls-8 {
        opacity: 0.98;
      }

      .cls-9 {
        fill: #cba13e;
      }
    </style>
  </defs>
  <title>boat-3-2</title>
  <g id="Layer_2" data-name="Layer 2">
    <g id="Layer_1-2" data-name="Layer 1">
      <g>
        <path class="cls-1" d="M196.93,22.47a62.68,62.68,0,0,0-7.6-4.19C157.06,2,132.08,0,99.3,0,67.91,0,41.15,3.12,3.17,19.66,1.66,20.2.39,20.75.39,20.75L0,35.94v1.82a20.22,20.22,0,0,0,3,1.52c24.68,12.9,64.2,20.46,96.48,20.46,31.9,0,68.75-4.16,94.2-21.11,1.22-.82,4.64-3.47,4.91-3.76V23.55A16,16,0,0,1,196.93,22.47Z"/>
        <rect class="cls-2" x="65.8" y="14.68" width="80.76" height="30.15" rx="7.36"/>
        <path class="cls-3" d="M164.5,10.75c-.16.92-14.54,3.9-25.86,3.09s-15.53-2.84-14.94-6c.46-2.53,5.41-4.56,16.73-3.75S164.65,10,164.5,10.75Z"/>
        <path class="cls-3" d="M167.06,49.25c-.11-.92-14.29-4.25-25.65-3.72s-15.69,2.46-15.3,5.66c.3,2.54,5.12,4.69,16.48,4.15S167.16,50,167.06,49.25Z"/>
        <rect class="cls-3" x="28.86" y="20.83" width="36.94" height="17.85"/>
        <path class="cls-4" d="M10.31,29.78c0-10.37,8.62-15.74,12.43-17.88C16.52,14.07,10,16.62,3.17,19.61,1.66,20.14.39,20.69.39,20.69L0,35.88V37.7a19.3,19.3,0,0,0,3,1.52A139.18,139.18,0,0,0,23.2,47.61C19,45.52,10.31,40.38,10.31,29.78Z"/>
        <g>
          <path class="cls-5" d="M145.12,54.52l9.54-.52c1,0,1.75-.61,1.66-1.24h0c-.09-.63-1-1.1-2-1l-9.53.52c-1,0-1.75.61-1.67,1.24h0C143.23,54.11,144.12,54.57,145.12,54.52Z"/>
          <path class="cls-6" d="M154.9,51.69l-8,.43.31,2.28,8-.43c.7,0,1.22-.42,1.16-.86l-.1-.7C156.21,52,155.6,51.65,154.9,51.69Z"/>
        </g>
        <g>
          <g>
            <path class="cls-5" d="M145.35,8.47l9.56.33c1,0,1.87-.45,1.92-1.08h0c.06-.63-.71-1.17-1.72-1.21l-9.56-.32c-1,0-1.87.45-1.92,1.08h0C143.57,7.9,144.35,8.44,145.35,8.47Z"/>
            <path class="cls-6" d="M155.67,6.53l-8-.27-.2,2.29,8,.27c.7,0,1.3-.31,1.33-.75l.06-.7C156.9,6.93,156.37,6.56,155.67,6.53Z"/>
          </g>
          <g>
            <path class="cls-7" d="M149.53,14.15,169.1,15c2.78.13,5.19-1.18,5.39-2.92h0c.21-1.75-1.88-3.26-4.66-3.39l-19.57-.89c-2.77-.13-5.19,1.18-5.39,2.93h0C144.67,12.51,146.75,14,149.53,14.15Z"/>
            <path class="cls-5" d="M165.12,11.85A6.51,6.51,0,0,1,167,8.6l-5.76-.26a6.61,6.61,0,0,0-1.54,3.27,6.12,6.12,0,0,0,.48,3l5.72.26A5.43,5.43,0,0,1,165.12,11.85Z"/>
            <path class="cls-5" d="M156.71,11.42a6.36,6.36,0,0,1,1.91-3.25l-5.77-.26a6.72,6.72,0,0,0-1.54,3.26,6.22,6.22,0,0,0,.48,3l5.73.26A5.27,5.27,0,0,1,156.71,11.42Z"/>
            <path class="cls-8" d="M172.55,8.87a8.48,8.48,0,0,0-.92,1.54c-.91,1.93-.87,3.74,0,4.72,1.44,0,2.65-.71,2.75-1.63l.33-2.8C174.76,9.84,173.85,9.08,172.55,8.87Z"/>
            <path class="cls-7" d="M173,9.64a6.25,6.25,0,0,0-.7,1.17c-.69,1.47-.66,2.86,0,3.61,1.1,0,2-.55,2.1-1.25l.25-2.13C174.69,10.38,174,9.8,173,9.64Z"/>
          </g>
        </g>
        <g>
          <path class="cls-7" d="M149.12,52.39l19.57-.77c2.78-.11,4.9-1.61,4.72-3.35h0c-.17-1.74-2.57-3.07-5.35-3l-19.57.77c-2.78.11-4.9,1.61-4.72,3.35h0C143.94,51.18,146.34,52.5,149.12,52.39Z"/>
          <path class="cls-5" d="M164.07,48.8a5.57,5.57,0,0,1,1.19-3.38l-5.76.23a5.93,5.93,0,0,0-.83,3.36,6.78,6.78,0,0,0,1.13,3l5.73-.22A6,6,0,0,1,164.07,48.8Z"/>
          <path class="cls-5" d="M155.88,49.14a5.59,5.59,0,0,1,1.2-3.38l-5.77.23a6,6,0,0,0-.83,3.36,6.78,6.78,0,0,0,1.13,3l5.73-.22A6.11,6.11,0,0,1,155.88,49.14Z"/>
          <path class="cls-8" d="M170.79,45.22a7.84,7.84,0,0,0-.59,1.6,4.77,4.77,0,0,0,1,4.69c1.42-.14,2.46-.93,2.37-1.85l-.28-2.8C173.19,46,172.12,45.32,170.79,45.22Z"/>
          <path class="cls-7" d="M171.42,46a5.21,5.21,0,0,0-.45,1.22,3.61,3.61,0,0,0,.74,3.57c1.08-.1,1.88-.71,1.81-1.41l-.21-2.14C173.24,46.54,172.43,46,171.42,46Z"/>
        </g>
        <g>
          <rect class="cls-7" x="118.81" y="26.79" width="33.25" height="5.93" rx="2.69"/>
          <path class="cls-5" d="M141.56,29.91a5.17,5.17,0,0,1,1.72-3.12h-6.47a5.23,5.23,0,0,0-1.3,3.12,5.35,5.35,0,0,0,.92,2.81h6.43A4.86,4.86,0,0,1,141.56,29.91Z"/>
          <path class="cls-5" d="M127.87,29.91a5.17,5.17,0,0,1,1.72-3.12h-6.47a5.23,5.23,0,0,0-1.3,3.12,5.28,5.28,0,0,0,.93,2.81h6.42A4.92,4.92,0,0,1,127.87,29.91Z"/>
          <path class="cls-8" d="M149.48,26.81a6.5,6.5,0,0,0-.84,1.47c-.76,1.84-.49,3.53.56,4.42,1.6-.07,2.86-.78,2.86-1.64V28.43C152.06,27.62,150.94,26.94,149.48,26.81Z"/>
          <path class="cls-7" d="M150.09,27.51a5.16,5.16,0,0,0-.64,1.12,2.88,2.88,0,0,0,.43,3.37c1.22-.06,2.18-.59,2.18-1.25v-2C152.06,28.12,151.21,27.61,150.09,27.51Z"/>
        </g>
        <rect class="cls-9" x="72.62" y="16.85" width="58.07" height="25.8" rx="12.9"/>
        <path class="cls-5" d="M131.66,25.09c0-4.53-5.91-8.24-13.14-8.24H113c4.61,3.1,8.94,7,9.11,11.45.22,5.84-5.19,10.7-10.71,14.35h7.08c7.23,0,13.14-3.7,13.14-8.23Z"/>
        <ellipse class="cls-5" cx="101.99" cy="29.87" rx="9.02" ry="5.65"/>
      </g>
    </g>
  </g>
</svg>
