<svg xmlns="http://www.w3.org/2000/svg" viewBox="0 0 133.44 56.68">
  <defs>
    <style>
      .cls-1, .cls-6 {
        fill: #e5be62;
      }

      .cls-2 {
        fill: #cba13e;
      }

      .cls-3 {
        fill: #c08e54;
      }

      .cls-4 {
        fill: #fcf5b7;
      }

      .cls-5 {
        fill: #9f772b;
      }

      .cls-6 {
        stroke: #9f772b;
        stroke-miterlimit: 10;
        stroke-width: 0.25px;
      }
    </style>
  </defs>
  <title>boat-2</title>
  <g id="Layer_2" data-name="Layer 2">
    <g id="Layer_1-2" data-name="Layer 1">
      <g>
        <path class="cls-1" d="M125.42,21.82C123.33,13.4,89.78,1,60.09,0h0C37.65-.07,34.61.54,34.61.54c-12,.7-21.23,4.61-30.86,9.05a7.71,7.71,0,0,0-3.6,3.58h0v.05a2.35,2.35,0,0,0-.12.94c0,.38,0,4.38,0,8.49a1.54,1.54,0,0,0,.1.51V34c0,4.11,0,8.11,0,8.49-.15,2,2.54,4,3.75,4.58,9.63,4.43,18.88,8.34,30.86,9,0,0,3,.61,25.48.53h0c30.65-1,65.43-14.21,65.43-22.62V21.83Z"/>
        <rect class="cls-2" x="14.09" y="16.61" width="22.24" height="21.21"/>
        <g>
          <rect class="cls-3" x="109.72" y="23.75" width="23.72" height="6.93" rx="3.14"/>
          <path class="cls-4" d="M126,27.4a7.8,7.8,0,0,1,1.22-3.65h-4.61a8.55,8.55,0,0,0-.93,3.65,9.09,9.09,0,0,0,.66,3.28h4.59A7.65,7.65,0,0,1,126,27.4Z"/>
          <path class="cls-4" d="M116.18,27.4a7.8,7.8,0,0,1,1.22-3.65h-4.61a8.55,8.55,0,0,0-.93,3.65,9.31,9.31,0,0,0,.66,3.28h4.59A7.65,7.65,0,0,1,116.18,27.4Z"/>
          <path class="cls-4" d="M131.6,23.77a9.78,9.78,0,0,0-.6,1.73c-.55,2.15-.35,4.12.4,5.16a2.07,2.07,0,0,0,2-1.92V25.67A2,2,0,0,0,131.6,23.77Z"/>
          <path class="cls-3" d="M132,24.59a7.48,7.48,0,0,0-.45,1.31,5,5,0,0,0,.3,3.94,1.57,1.57,0,0,0,1.56-1.46V26A1.55,1.55,0,0,0,132,24.59Z"/>
        </g>
        <rect class="cls-2" x="63.25" y="16.61" width="52.74" height="21.21" rx="9.61"/>
        <rect class="cls-5" x="23.39" y="6.35" width="58.63" height="42.77" rx="19.38"/>
        <path class="cls-6" d="M52,27.74H23.35V41.82c0,4,3.8,7.3,8.49,7.3H54.43V29.82A2.28,2.28,0,0,0,52,27.74Z"/>
        <g>
          <rect class="cls-3" x="63.21" y="24.39" width="23.72" height="6.93" rx="3.14"/>
          <path class="cls-4" d="M79.45,28a7.69,7.69,0,0,1,1.22-3.64H76.05A8.67,8.67,0,0,0,75.13,28a9.15,9.15,0,0,0,.66,3.29h4.58A7.78,7.78,0,0,1,79.45,28Z"/>
          <path class="cls-4" d="M69.68,28a7.8,7.8,0,0,1,1.22-3.64H66.29A8.54,8.54,0,0,0,65.36,28,9.15,9.15,0,0,0,66,31.32h4.59A7.65,7.65,0,0,1,69.68,28Z"/>
          <path class="cls-4" d="M85.09,24.41a10.87,10.87,0,0,0-.6,1.72c-.54,2.15-.34,4.13.41,5.17a2.08,2.08,0,0,0,2-1.92V26.3A2,2,0,0,0,85.09,24.41Z"/>
          <path class="cls-3" d="M85.53,25.23a8.06,8.06,0,0,0-.46,1.31,5.09,5.09,0,0,0,.31,3.94A1.59,1.59,0,0,0,86.94,29V26.67A1.55,1.55,0,0,0,85.53,25.23Z"/>
        </g>
        <path class="cls-2" d="M70.79,27.85c0,8.14-8.15,14.74-18.2,14.74S35.43,41.42,35.43,27.85c0-14.73,7.11-14.73,17.16-14.73S70.79,19.71,70.79,27.85Z"/>
        <path class="cls-6" d="M109.57,16.61H92.84V37.82h16.73c3.79,0,6.87-2.64,6.87-5.91V22.52C116.44,19.26,113.36,16.61,109.57,16.61Z"/>
        <ellipse class="cls-4" cx="52.71" cy="27.22" rx="6.01" ry="5.17"/>
      </g>
    </g>
  </g>
</svg>
