<svg xmlns="http://www.w3.org/2000/svg" viewBox="0 0 332.05 60.2">
  <defs>
    <style>
      .cls-1 {
        fill: #e5be62;
      }

      .cls-2 {
        fill: #fff;
        stroke: #231f20;
      }

      .cls-2, .cls-8 {
        stroke-miterlimit: 10;
      }

      .cls-3 {
        fill: #7b5421;
      }

      .cls-4 {
        fill: #9f772b;
      }

      .cls-5 {
        fill: #cba13e;
      }

      .cls-6 {
        fill: #684018;
      }

      .cls-10, .cls-7 {
        fill: #fcf5b7;
      }

      .cls-8, .cls-9 {
        fill: #c08e54;
      }

      .cls-8 {
        stroke: #e5be61;
        stroke-width: 0.25px;
      }

      .cls-10 {
        opacity: 0.98;
      }
    </style>
  </defs>
  <title>boat-5</title>
  <g id="Layer_2" data-name="Layer 2">
    <g id="Layer_1-2" data-name="Layer 1">
      <g>
        <path class="cls-1" d="M272.45,1c-.14-.22-.3-.44-.44-.65H8.63C3.88.35,0,3.06,0,6.37V54c0,3.31,3.88,6,8.63,6H272.07c.08-.11.15-.23.23-.35,5.15-8.15,11.15-18.43,11.15-29.59C283.45,19.43,278,9.29,272.45,1ZM200.2,5.08a1,1,0,0,1,1.08-.83h9.13a1,1,0,0,1,1.08.83v.33h13l.42,0h0a2.44,2.44,0,0,1,1.69.94,2.68,2.68,0,0,1,.18.33,1.32,1.32,0,0,1,.1.53v2.93a1.44,1.44,0,0,1-.16.67l-.1.15a1.49,1.49,0,0,1-.23.28,2.28,2.28,0,0,1-.52.39l-.21.1-.22.08-.22.07h0L225,12a2.35,2.35,0,0,1-.47,0H203.93a2.18,2.18,0,0,1-2.4-1.83V7.25a1.55,1.55,0,0,1,.13-.61h-.38a1,1,0,0,1-1.08-.82ZM47.65,3H84.28v7.14H47.65ZM84.28,58H47.65V50.87H84.28Zm115-12.73v.25c0,.31-.41.56-.91.56h-7.76c-.5,0-.91-.26-.91-.57V45c0-.32.41-.57.91-.57h.34a.85.85,0,0,1-.12-.43v-.59H170.84v8.63H96.65V47.75H51.46V39.14a18.24,18.24,0,0,1-6.9,1.31H34.1c-7.48,0-13.56-4.24-13.56-9.46,0-2.62,1.52-5,4-6.69a16.79,16.79,0,0,1,9.58-2.78H44.56a18.05,18.05,0,0,1,6.9,1.32V13.23H96.65V8.57h74.19v7.31h19.84V15.3a.9.9,0,0,1,.13-.44h-.52c-.5,0-.91-.25-.91-.56v-.5c0-.31.41-.56.91-.56h7.76c.5,0,.91.25.91.56v.25h11.22l.35,0h0a2.36,2.36,0,0,1,.78.21.8.8,0,0,1,.29.15.42.42,0,0,1,.14.09.52.52,0,0,1,.11.1.24.24,0,0,1,.1.1l.09.11a.8.8,0,0,1,.16.47v.58h9V43.44h-9V44a.83.83,0,0,1-.14.46l-.07.09a1.12,1.12,0,0,1-.32.29.6.6,0,0,1-.13.09l-.14.07a2.93,2.93,0,0,1-1.23.26h-11ZM227.67,52a1.43,1.43,0,0,1-.17.68.51.51,0,0,1-.09.16,1.89,1.89,0,0,1-.23.28,2,2,0,0,1-.52.38l-.21.11-.22.08-.23.06h0l-.25.05a2.31,2.31,0,0,1-.46,0h-13v.36a1,1,0,0,1-1.08.82h-9.14A1,1,0,0,1,201,54.2v-.73a1,1,0,0,1,1.08-.82h.41a1.29,1.29,0,0,1-.16-.64V49.09a2.18,2.18,0,0,1,2.41-1.83h20.57a2.73,2.73,0,0,1,.41,0h0a2.73,2.73,0,0,1,.72.2,2.14,2.14,0,0,1,.55.32l.23.2a1.92,1.92,0,0,1,.18.22l.1.16a1.3,1.3,0,0,1,.08.17,1.4,1.4,0,0,1,.11.53ZM235.6,5.82V5.08a1,1,0,0,1,1.08-.83h9.13a1,1,0,0,1,1.09.83v0h13a2.86,2.86,0,0,1,.42,0h0a2.78,2.78,0,0,1,.91.29,1.89,1.89,0,0,1,.28.17,1.45,1.45,0,0,1,.23.19,1.06,1.06,0,0,1,.15.15,1.34,1.34,0,0,1,.11.14,1.4,1.4,0,0,1,.1.16,1.3,1.3,0,0,1,.08.17,1.15,1.15,0,0,1,.06.17,1.12,1.12,0,0,1,.05.36V9.89a1.77,1.77,0,0,1-.09.52,1.19,1.19,0,0,1-.08.16,1.31,1.31,0,0,1-.32.43,2.63,2.63,0,0,1-1.9.74H239.33a2.18,2.18,0,0,1-2.4-1.84V7a1.13,1.13,0,0,1,0-.32h-.3A1,1,0,0,1,235.6,5.82Zm27.48,45.92a1.42,1.42,0,0,1-.17.67l-.09.16-.23.28a2.16,2.16,0,0,1-.33.27l-.2.11a.68.68,0,0,1-.21.1,2.67,2.67,0,0,1-.66.19l-.29,0h0l-.22,0h-13v.37a1,1,0,0,1-1.08.82h-9.13a1,1,0,0,1-1.08-.82v-.74a1,1,0,0,1,1.08-.82h.4a1.43,1.43,0,0,1-.15-.64V48.81A2.17,2.17,0,0,1,240.1,47h20.58a2.86,2.86,0,0,1,.42,0h0a2.48,2.48,0,0,1,.72.2,2.08,2.08,0,0,1,.77.51,2.11,2.11,0,0,1,.19.23s.07.1.1.16a1.19,1.19,0,0,1,.08.16,1.41,1.41,0,0,1,.11.54Z"/>
        <path class="cls-2" d="M200.2,5.82V5.08a1,1,0,0,1,1.08-.83h9.13a1,1,0,0,1,1.08.83v.33h13l.42,0h0a2.44,2.44,0,0,1,1.69.94,2.68,2.68,0,0,1,.18.33,1.32,1.32,0,0,1,.1.53v2.93a1.44,1.44,0,0,1-.16.67l-.1.15a1.49,1.49,0,0,1-.23.28,2.28,2.28,0,0,1-.52.39l-.21.1-.22.08-.22.07h0L225,12l-.25,0h0l-.22,0H203.93a2.18,2.18,0,0,1-2.4-1.83V7.25a1.55,1.55,0,0,1,.13-.61h-.38A1,1,0,0,1,200.2,5.82Z"/>
        <path class="cls-2" d="M227.56,48.56a1.4,1.4,0,0,1,.11.53V52a1.43,1.43,0,0,1-.17.68.51.51,0,0,1-.09.16,1.89,1.89,0,0,1-.23.28,2,2,0,0,1-.52.38l-.21.11-.22.08-.23.06h0l-.25.05-.25,0h0l-.21,0h-13v.36a1,1,0,0,1-1.08.82h-9.14A1,1,0,0,1,201,54.2v-.73a1,1,0,0,1,1.08-.82h.41a1.29,1.29,0,0,1-.16-.64V49.09a2.18,2.18,0,0,1,2.41-1.83h20.57a2.73,2.73,0,0,1,.41,0h0a2.73,2.73,0,0,1,.72.2,2.14,2.14,0,0,1,.55.32l.23.2a1.92,1.92,0,0,1,.18.22l.1.16A1.3,1.3,0,0,1,227.56,48.56Z"/>
        <path class="cls-2" d="M236.68,6.64a1,1,0,0,1-1.08-.82V5.08a1,1,0,0,1,1.08-.83h9.13a1,1,0,0,1,1.09.83v0h13a2.86,2.86,0,0,1,.42,0h0a2.78,2.78,0,0,1,.91.29,1.89,1.89,0,0,1,.28.17,1.45,1.45,0,0,1,.23.19,1.06,1.06,0,0,1,.15.15,1.34,1.34,0,0,1,.11.14,1.4,1.4,0,0,1,.1.16,1.3,1.3,0,0,1,.08.17,1.15,1.15,0,0,1,.06.17,1.12,1.12,0,0,1,.05.36V9.89a1.77,1.77,0,0,1-.09.52,1.19,1.19,0,0,1-.08.16,1.31,1.31,0,0,1-.32.43,2.63,2.63,0,0,1-1.9.74H239.33a2.18,2.18,0,0,1-2.4-1.84V7a1.13,1.13,0,0,1,0-.32Z"/>
        <path class="cls-2" d="M263,48.28a1.41,1.41,0,0,1,.11.54v2.92a1.42,1.42,0,0,1-.17.67l-.09.16-.23.28a2.16,2.16,0,0,1-.33.27l-.2.11-.21.1a2.67,2.67,0,0,1-.66.19l-.29,0h0l-.22,0h-13v.37a1,1,0,0,1-1.08.82h-9.13a1,1,0,0,1-1.08-.82v-.74a1,1,0,0,1,1.08-.82h.4a1.43,1.43,0,0,1-.15-.64V48.81A2.17,2.17,0,0,1,240.1,47h20.58a2.86,2.86,0,0,1,.42,0h0a2.48,2.48,0,0,1,.72.2,2.08,2.08,0,0,1,.77.51,2.11,2.11,0,0,1,.19.23s.07.1.1.16A1.19,1.19,0,0,1,263,48.28Z"/>
        <path class="cls-2" d="M226.89,7.25v2.93a1.44,1.44,0,0,1-.16.67l-.1.15a1.49,1.49,0,0,1-.23.28,2.28,2.28,0,0,1-.52.39l-.17.08,0,0-.22.08-.22.07h0L225,12l-.25,0h0l-.22,0H203.93a2.18,2.18,0,0,1-2.4-1.83V7.25a1.55,1.55,0,0,1,.13-.61h-.38a1,1,0,0,1-1.08-.82V5.08a1,1,0,0,1,1.08-.83h9.13a1,1,0,0,1,1.08.83v.33h13l.42,0h0a2.44,2.44,0,0,1,1.69.94,2.68,2.68,0,0,1,.18.33A1.32,1.32,0,0,1,226.89,7.25Z"/>
        <path class="cls-2" d="M227.67,49.09V52a1.43,1.43,0,0,1-.17.68.51.51,0,0,1-.09.16,1.89,1.89,0,0,1-.23.28,2,2,0,0,1-.52.38l-.17.08s0,0,0,0l-.22.08-.23.06h0l-.25.05-.25,0h0l-.21,0h-13v.36a1,1,0,0,1-1.08.82h-9.14A1,1,0,0,1,201,54.2v-.73a1,1,0,0,1,1.08-.82h.41a1.29,1.29,0,0,1-.16-.64V49.09a2.18,2.18,0,0,1,2.41-1.83h20.57a2.73,2.73,0,0,1,.41,0h0a2.73,2.73,0,0,1,.72.2,2.14,2.14,0,0,1,.55.32l.23.2a1.92,1.92,0,0,1,.18.22l.1.16a1.3,1.3,0,0,1,.08.17A1.4,1.4,0,0,1,227.67,49.09Z"/>
        <path class="cls-2" d="M262.3,7V9.89a1.77,1.77,0,0,1-.09.52,1.19,1.19,0,0,1-.08.16,1.31,1.31,0,0,1-.32.43,2.63,2.63,0,0,1-1.9.74H239.33a2.18,2.18,0,0,1-2.4-1.84V7a1.13,1.13,0,0,1,0-.32h-.3a1,1,0,0,1-1.08-.82V5.08a1,1,0,0,1,1.08-.83h9.13a1,1,0,0,1,1.09.83v0h13a2.86,2.86,0,0,1,.42,0h0a2.78,2.78,0,0,1,.91.29,1.89,1.89,0,0,1,.28.17,1.45,1.45,0,0,1,.23.19,1.06,1.06,0,0,1,.15.15,1.34,1.34,0,0,1,.11.14,1.4,1.4,0,0,1,.1.16,1.3,1.3,0,0,1,.08.17,1.15,1.15,0,0,1,.06.17A1.12,1.12,0,0,1,262.3,7Z"/>
        <path class="cls-2" d="M263.08,48.82v2.92a1.42,1.42,0,0,1-.17.67l-.09.16-.23.28a2.16,2.16,0,0,1-.33.27l-.2.11-.21.1a2.67,2.67,0,0,1-.66.19l-.24,0h-.05l-.22,0h-13v.37a1,1,0,0,1-1.08.82h-9.13a1,1,0,0,1-1.08-.82v-.74a1,1,0,0,1,1.08-.82h.4a1.43,1.43,0,0,1-.15-.64V48.81A2.17,2.17,0,0,1,240.1,47h20.58a2.86,2.86,0,0,1,.42,0h0a2.48,2.48,0,0,1,.72.2,2.08,2.08,0,0,1,.77.51,2.11,2.11,0,0,1,.19.23s.07.1.1.16a1.19,1.19,0,0,1,.08.16A1.41,1.41,0,0,1,263.08,48.82Z"/>
        <path class="cls-3" d="M67.65,30.82c0,2.93-2,5.59-5.2,7.52A18.92,18.92,0,0,1,58.94,40a27.06,27.06,0,0,1-9,1.48H36.26c-9.78,0-17.72-4.76-17.72-10.63,0-2.94,2-5.6,5.2-7.52a24.62,24.62,0,0,1,12.52-3.12H49.93a27.06,27.06,0,0,1,9,1.48C64.15,23.51,67.65,26.92,67.65,30.82Z"/>
        <rect class="cls-3" x="51.46" y="13.23" width="45.19" height="34.53"/>
        <rect class="cls-3" x="161.81" y="15.88" width="59.45" height="27.56"/>
        <rect class="cls-4" x="96.65" y="8.57" width="74.2" height="43.5"/>
        <rect class="cls-3" x="196.69" y="44.28" width="72" height="12" rx="5.5"/>
        <rect class="cls-5" x="47.65" y="50.87" width="36.62" height="7.14"/>
        <rect class="cls-5" x="47.65" y="2.97" width="36.62" height="7.14"/>
        <path class="cls-6" d="M332.05,29.56c0,2.84-6.87,8.25-13.25,13.26a60.19,60.19,0,0,1-9,5.8c-1.82,1-3.49,1.76-4.93,2.43a99.83,99.83,0,0,1-24.41,7.78c-2.05.36-3.61.65-4.93.87-.84.14-1.58.26-2.3.35q-.61.09-1.23.15l.1-.15c.08-.11.15-.23.23-.35,5.15-8.15,11.15-18.43,11.15-29.59,0-10.68-5.49-20.82-11-29.11-.14-.22-.3-.44-.44-.65L271.78,0c.84.09,1.78.21,2.83.35,1.25.17,2.65.38,4.14.65,2.12.38,4.44.86,6.86,1.48,3.88,1,12.46,4.53,22.09,9.15l2.07,1C321,18.38,332.05,27,332.05,29.56Z"/>
        <rect class="cls-5" x="111.77" y="13.32" width="52.21" height="34.49" rx="12"/>
        <rect class="cls-7" x="135.7" y="13.32" width="28.28" height="34.25" rx="10.82"/>
        <rect class="cls-6" x="99.54" y="25.03" width="12.21" height="9.96"/>
        <rect class="cls-3" x="101.03" y="26.23" width="9.24" height="7.53"/>
        <ellipse class="cls-6" cx="194.35" cy="29.66" rx="19.79" ry="12.86"/>
        <rect class="cls-3" x="195.2" y="2.5" width="72" height="12" rx="5.5"/>
        <ellipse class="cls-7" cx="194.35" cy="29.66" rx="16.13" ry="10.48"/>
        <g>
          <g>
            <path class="cls-7" d="M212.27,53.48v.73a1,1,0,0,1-1.08.82h-9.14A1,1,0,0,1,201,54.2v-.73a1,1,0,0,1,1.08-.82h9.14A1,1,0,0,1,212.27,53.48Z"/>
            <path class="cls-8" d="M212.27,53.48v.73a1,1,0,0,1-1.08.82h-6.83V52.65h6.83A1,1,0,0,1,212.27,53.48Z"/>
          </g>
          <g>
            <path class="cls-9" d="M227.67,49.09V52a1.43,1.43,0,0,1-.17.68.51.51,0,0,1-.09.16,1.89,1.89,0,0,1-.23.28,2,2,0,0,1-.52.38l-.17.08s0,0,0,0l-.22.08-.23.06h0l-.25.05-.25,0h0l-.21,0H204.71a2.06,2.06,0,0,1-.35,0,2.35,2.35,0,0,1-1.9-1.17,1.29,1.29,0,0,1-.16-.64V49.09a2.18,2.18,0,0,1,2.41-1.83h20.57a2.73,2.73,0,0,1,.41,0,3.25,3.25,0,0,1,.73.19,2.48,2.48,0,0,1,.55.32l.23.2a1.92,1.92,0,0,1,.18.22l.1.16a1.3,1.3,0,0,1,.08.17A1.4,1.4,0,0,1,227.67,49.09Z"/>
            <path class="cls-7" d="M219.66,50.73a6.75,6.75,0,0,0,1,3.12h-4.9a8,8,0,0,1-.71-3.12,7.53,7.53,0,0,1,1-3.46H221A6.86,6.86,0,0,0,219.66,50.73Z"/>
            <path class="cls-7" d="M212.05,50.73a6.78,6.78,0,0,0,1,3.12h-4.91a8.87,8.87,0,0,1-.42-1.19h0a7.21,7.21,0,0,1-.28-1.93,7.41,7.41,0,0,1,1-3.46h4.94A6.86,6.86,0,0,0,212.05,50.73Z"/>
            <path class="cls-10" d="M227.67,49.09V52a1.43,1.43,0,0,1-.17.68.51.51,0,0,1-.09.16,1.89,1.89,0,0,1-.23.28,2,2,0,0,1-.52.38l-.21.11-.22.08-.24.06-.25.05-.25,0c-.8-1-1-2.87-.43-4.91a9.85,9.85,0,0,1,.63-1.63h0a2.73,2.73,0,0,1,.72.2,2.14,2.14,0,0,1,.55.32l.23.2a1.92,1.92,0,0,1,.18.22l.1.16a1.3,1.3,0,0,1,.08.17A1.4,1.4,0,0,1,227.67,49.09Z"/>
            <path class="cls-9" d="M227.67,49.45v2.22A1.61,1.61,0,0,1,226,53.06a4.34,4.34,0,0,1-.33-3.74,6.92,6.92,0,0,1,.49-1.25A1.57,1.57,0,0,1,227.67,49.45Z"/>
          </g>
        </g>
        <g>
          <g>
            <path class="cls-7" d="M247.67,53.2v.74a1,1,0,0,1-1.08.82h-9.13a1,1,0,0,1-1.08-.82v-.74a1,1,0,0,1,1.08-.82h9.13A1,1,0,0,1,247.67,53.2Z"/>
            <path class="cls-8" d="M247.67,53.2v.74a1,1,0,0,1-1.08.82h-6.82V52.37h6.82A1,1,0,0,1,247.67,53.2Z"/>
          </g>
          <g>
            <path class="cls-9" d="M263.08,48.82v2.92a1.42,1.42,0,0,1-.17.67l-.09.16-.23.28a2.16,2.16,0,0,1-.33.27l-.2.11-.21.1a2.67,2.67,0,0,1-.66.19l-.24,0h-.05l-.22,0H240.1l-.33,0a2.35,2.35,0,0,1-1.91-1.17,1.43,1.43,0,0,1-.15-.64V48.81A2.17,2.17,0,0,1,240.1,47h20.58a2.86,2.86,0,0,1,.42,0,2.9,2.9,0,0,1,.73.19,2.3,2.3,0,0,1,.77.51,2.11,2.11,0,0,1,.19.23s.07.1.1.16a1.19,1.19,0,0,1,.08.16A1.41,1.41,0,0,1,263.08,48.82Z"/>
            <path class="cls-7" d="M255.07,50.45a6.63,6.63,0,0,0,1,3.12h-4.9a7.82,7.82,0,0,1-.71-3.12,7.41,7.41,0,0,1,1-3.46h4.94A6.77,6.77,0,0,0,255.07,50.45Z"/>
            <path class="cls-7" d="M247.45,50.45a6.67,6.67,0,0,0,1,3.11h-4.9a7.67,7.67,0,0,1-.42-1.19,7.15,7.15,0,0,1-.28-1.93,7.37,7.37,0,0,1,1-3.45h4.93A6.86,6.86,0,0,0,247.45,50.45Z"/>
            <path class="cls-10" d="M263.08,48.82v2.92a1.42,1.42,0,0,1-.17.67l-.09.16-.23.28a2.16,2.16,0,0,1-.33.27l-.2.11-.21.1a2.67,2.67,0,0,1-.66.19l-.29,0h0c-.8-1-1-2.86-.43-4.9A8.94,8.94,0,0,1,261.1,47h0a2.48,2.48,0,0,1,.72.2,2.08,2.08,0,0,1,.77.51,2.11,2.11,0,0,1,.19.23s.07.1.1.16a1.19,1.19,0,0,1,.08.16A1.41,1.41,0,0,1,263.08,48.82Z"/>
            <path class="cls-9" d="M263.08,49.16v2.23a1.61,1.61,0,0,1-1.66,1.39,4.3,4.3,0,0,1-.33-3.74,7.19,7.19,0,0,1,.48-1.25A1.57,1.57,0,0,1,263.08,49.16Z"/>
          </g>
        </g>
        <g>
          <g>
            <path class="cls-7" d="M199.23,45v.5c0,.31-.41.56-.91.56h-7.76c-.5,0-.91-.26-.91-.57V45c0-.32.41-.57.91-.57h7.76C198.82,44.46,199.23,44.72,199.23,45Z"/>
            <path class="cls-8" d="M199.23,45v.5c0,.31-.41.56-.91.56h-5.81V44.46h5.81C198.82,44.46,199.23,44.72,199.23,45Z"/>
          </g>
          <g>
            <path class="cls-9" d="M212.3,42v2a.83.83,0,0,1-.14.46l-.07.09a1.12,1.12,0,0,1-.32.29l-.13.09-.14.07a2.93,2.93,0,0,1-1.23.26H192.81l-.3,0a2.09,2.09,0,0,1-1.61-.8.85.85,0,0,1-.12-.43V42c0-.69.91-1.25,2-1.25h17.46a2,2,0,0,1,.35,0,2.69,2.69,0,0,1,1.09.34l.19.14a.57.57,0,0,1,.16.15.44.44,0,0,1,.08.11,1,1,0,0,1,.12.23A.69.69,0,0,1,212.3,42Z"/>
            <path class="cls-7" d="M205.52,43.44a4.46,4.46,0,0,0,.83,1.85h-4.16a4.8,4.8,0,0,1-.6-1.84v-.29a3.85,3.85,0,0,1,.41-1.63h0a5,5,0,0,1,.43-.73h4.19a4.14,4.14,0,0,0-1.12,2.36A2.83,2.83,0,0,0,205.52,43.44Z"/>
            <path class="cls-7" d="M199.06,43.44a4.48,4.48,0,0,0,.82,1.84h-4.16a5.38,5.38,0,0,1-.36-.82,4.68,4.68,0,0,1-.23-1c0-.1,0-.2,0-.29a2.8,2.8,0,0,1,.08-.64,4.66,4.66,0,0,1,.76-1.72h4.2a6,6,0,0,0-.86,1.32,2.38,2.38,0,0,0-.26,1C199,43.24,199.05,43.34,199.06,43.44Z"/>
            <path class="cls-10" d="M212.3,42v2a.83.83,0,0,1-.14.46l-.07.09a1.12,1.12,0,0,1-.32.29l-.13.09-.14.07a3.05,3.05,0,0,1-1,.24,2.45,2.45,0,0,1-.65-1.83,4.35,4.35,0,0,1,.28-1.52,5.88,5.88,0,0,1,.53-1.1h0a2.51,2.51,0,0,1,1.08.35.94.94,0,0,1,.19.14.57.57,0,0,1,.16.15.44.44,0,0,1,.08.11,1,1,0,0,1,.12.23A.69.69,0,0,1,212.3,42Z"/>
            <path class="cls-9" d="M212.3,42.28V43.8c0,.49-.62.9-1.41.94a1.87,1.87,0,0,1-.49-1.3,3.64,3.64,0,0,1,.21-1.25,4.46,4.46,0,0,1,.41-.85C211.75,41.42,212.3,41.8,212.3,42.28Z"/>
          </g>
        </g>
        <g>
          <g>
            <path class="cls-7" d="M211.49,5.09v.73a1,1,0,0,1-1.08.83h-9.13a1,1,0,0,1-1.08-.82V5.08a1,1,0,0,1,1.08-.83h9.13A1,1,0,0,1,211.49,5.09Z"/>
            <path class="cls-8" d="M211.49,5.09v.73a1,1,0,0,1-1.08.83h-6.83V4.25h6.83A1,1,0,0,1,211.49,5.09Z"/>
          </g>
          <g>
            <path class="cls-9" d="M226.89,7.25v2.93a1.44,1.44,0,0,1-.16.67l-.1.15a1.49,1.49,0,0,1-.23.28,2.28,2.28,0,0,1-.52.39l-.17.08,0,0-.22.08-.22.07h0L225,12l-.25,0h0l-.22,0H203.93a2.18,2.18,0,0,1-2.4-1.83V7.25a1.55,1.55,0,0,1,.13-.61,2.37,2.37,0,0,1,1.92-1.21l.35,0H224.5l.42,0a2.49,2.49,0,0,1,1.69.93,2.68,2.68,0,0,1,.18.33A1.32,1.32,0,0,1,226.89,7.25Z"/>
            <path class="cls-7" d="M218.89,8.89a6.78,6.78,0,0,0,1,3.12H215a7.87,7.87,0,0,1-.72-3.12,7.43,7.43,0,0,1,1-3.47h4.93A6.84,6.84,0,0,0,218.89,8.89Z"/>
            <path class="cls-7" d="M211.27,8.88a6.65,6.65,0,0,0,1,3.12h-4.91a7.82,7.82,0,0,1-.71-3.12,6.41,6.41,0,0,1,.44-2.23h0a10.16,10.16,0,0,1,.55-1.22h4.94A6.86,6.86,0,0,0,211.27,8.88Z"/>
            <path class="cls-10" d="M226.89,7.25v2.93a1.44,1.44,0,0,1-.16.67l-.1.15a1.49,1.49,0,0,1-.23.28,2.28,2.28,0,0,1-.52.39l-.21.1-.22.08-.24.07L225,12l-.25,0c-.8-1-1-2.86-.44-4.9a9.87,9.87,0,0,1,.64-1.63h0a2.44,2.44,0,0,1,1.69.94,2.68,2.68,0,0,1,.18.33A1.32,1.32,0,0,1,226.89,7.25Z"/>
            <path class="cls-9" d="M226.89,7.6V9.83a1.61,1.61,0,0,1-1.66,1.39,4.34,4.34,0,0,1-.33-3.74,7.39,7.39,0,0,1,.49-1.25A1.55,1.55,0,0,1,226.89,7.6Z"/>
          </g>
        </g>
        <g>
          <g>
            <path class="cls-7" d="M246.9,5.09v.73a1,1,0,0,1-1.09.83h-9.13a1,1,0,0,1-1.08-.82V5.08a1,1,0,0,1,1.08-.83h9.13A1,1,0,0,1,246.9,5.09Z"/>
            <path class="cls-8" d="M246.9,5.09v.73a1,1,0,0,1-1.09.83H239V4.26h6.83A1,1,0,0,1,246.9,5.09Z"/>
          </g>
          <g>
            <path class="cls-9" d="M262.3,7V9.89a1.77,1.77,0,0,1-.09.52,1.19,1.19,0,0,1-.08.16,1.31,1.31,0,0,1-.32.43,2.63,2.63,0,0,1-1.9.74H239.33a2.18,2.18,0,0,1-2.4-1.84V7a1.13,1.13,0,0,1,0-.32,2.17,2.17,0,0,1,2-1.48,2.06,2.06,0,0,1,.35,0H259.9a2.86,2.86,0,0,1,.42,0,3.2,3.2,0,0,1,.92.28,2.61,2.61,0,0,1,.28.17,1.45,1.45,0,0,1,.23.19,1.06,1.06,0,0,1,.15.15,1.34,1.34,0,0,1,.11.14,1.4,1.4,0,0,1,.1.16,1.3,1.3,0,0,1,.08.17,1.15,1.15,0,0,1,.06.17A1.12,1.12,0,0,1,262.3,7Z"/>
            <path class="cls-7" d="M254.29,8.61a6.75,6.75,0,0,0,1,3.12h-4.9a7.83,7.83,0,0,1-.71-3.13,7.49,7.49,0,0,1,1-3.45h4.93A6.93,6.93,0,0,0,254.29,8.61Z"/>
            <path class="cls-7" d="M246.67,8.6a6.8,6.8,0,0,0,1,3.13h-4.91a8,8,0,0,1-.7-3.12,6.21,6.21,0,0,1,.34-1.95h0a8.51,8.51,0,0,1,.65-1.5H248A6.86,6.86,0,0,0,246.67,8.6Z"/>
            <path class="cls-10" d="M262.3,7V9.89a1.77,1.77,0,0,1-.09.52,1.19,1.19,0,0,1-.08.16,1.85,1.85,0,0,1-.32.43,2.66,2.66,0,0,1-1.7.72c-.79-1-1-2.87-.42-4.91a9.85,9.85,0,0,1,.63-1.63h0a2.78,2.78,0,0,1,.91.29,1.89,1.89,0,0,1,.28.17,1.45,1.45,0,0,1,.23.19,1.06,1.06,0,0,1,.15.15,1.34,1.34,0,0,1,.11.14,1.4,1.4,0,0,1,.1.16,1.3,1.3,0,0,1,.08.17,1.15,1.15,0,0,1,.06.17A1.12,1.12,0,0,1,262.3,7Z"/>
            <path class="cls-9" d="M262.3,7.33V9.55a1.61,1.61,0,0,1-1.67,1.39,4.36,4.36,0,0,1-.32-3.75A6.16,6.16,0,0,1,260.8,6,1.57,1.57,0,0,1,262.3,7.33Z"/>
          </g>
        </g>
        <g>
          <g>
            <path class="cls-7" d="M199,13.8v.5c0,.32-.41.57-.91.57h-7.76c-.5,0-.91-.25-.91-.56v-.5c0-.31.41-.56.91-.56h7.76C198.55,13.24,199,13.49,199,13.8Z"/>
            <path class="cls-8" d="M199,13.8v.5c0,.32-.41.57-.91.57h-5.8V13.24h5.8C198.55,13.24,199,13.49,199,13.8Z"/>
          </g>
          <g>
            <path class="cls-9" d="M212.21,15.3v1.76h0v.23a.89.89,0,0,1-.14.47,1.27,1.27,0,0,1-.28.29l0,0a2.6,2.6,0,0,1-1.56.45H192.72c-1.13,0-2-.56-2-1.25v-2a.9.9,0,0,1,.13-.44,2,2,0,0,1,1.44-.78,3.59,3.59,0,0,1,.47,0h17.46l.35,0a2.69,2.69,0,0,1,.79.2.8.8,0,0,1,.29.15.42.42,0,0,1,.14.09.52.52,0,0,1,.11.1.24.24,0,0,1,.1.1l.09.11a.8.8,0,0,1,.16.47Z"/>
            <path class="cls-7" d="M205.42,16.42a4,4,0,0,0,.84,2.13H202.1a5.44,5.44,0,0,1-.37-.82,4.08,4.08,0,0,1-.24-1.31,3.29,3.29,0,0,1,0-.54,5,5,0,0,1,.8-1.83h4.18a5.23,5.23,0,0,0-1,1.82A2,2,0,0,0,205.42,16.42Z"/>
            <path class="cls-7" d="M199.08,17.18a5.48,5.48,0,0,0,.72,1.37h-4.17a5,5,0,0,1-.58-1.73c0-.13,0-.26,0-.39a2.47,2.47,0,0,1,.05-.54,3.54,3.54,0,0,1,.34-1,5.64,5.64,0,0,1,.46-.82h4.18a5.38,5.38,0,0,0-1,1.83,2,2,0,0,0-.07.54A2.56,2.56,0,0,0,199.08,17.18Z"/>
            <path class="cls-10" d="M212.21,15.3v1.76h0v.23a.89.89,0,0,1-.14.47,1.9,1.9,0,0,1-.28.29l0,0a2.66,2.66,0,0,1-1.38.44,2.91,2.91,0,0,1-.55-2.66,5.14,5.14,0,0,1,.19-.69,6,6,0,0,1,.53-1.11h0a2.36,2.36,0,0,1,.78.21.8.8,0,0,1,.29.15.42.42,0,0,1,.14.09.52.52,0,0,1,.11.1.24.24,0,0,1,.1.1l.09.11a.8.8,0,0,1,.16.47Z"/>
            <path class="cls-9" d="M212.21,15.54v1.52h0c0,.5-.63.9-1.41.94a2.25,2.25,0,0,1-.4-2.13,3.31,3.31,0,0,1,.12-.42,4,4,0,0,1,.42-.85C211.66,14.69,212.21,15.07,212.21,15.54Z"/>
          </g>
        </g>
      </g>
    </g>
  </g>
</svg>
